<mxfile host="Electron" modified="2023-09-05T13:42:29.010Z" agent="Mozilla/5.0 (Windows NT 10.0; Win64; x64) AppleWebKit/537.36 (KHTML, like Gecko) draw.io/21.2.1 Chrome/112.0.5615.87 Electron/24.1.2 Safari/537.36" etag="9PR2kpVzfXniA0jQBaGg" version="21.2.1" type="device">
  <diagram name="Página-1" id="W83xtEJMmamZggr5R-n2">
    <mxGraphModel dx="1600" dy="760" grid="1" gridSize="10" guides="1" tooltips="1" connect="1" arrows="1" fold="1" page="1" pageScale="1" pageWidth="827" pageHeight="1169" math="0" shadow="0">
      <root>
        <mxCell id="0" />
        <mxCell id="1" parent="0" />
        <mxCell id="Mctxi2W_aiQkZ-FzXaD9-50" value="&lt;p style=&quot;margin:0px;margin-top:4px;text-align:center;&quot;&gt;&lt;i&gt;&amp;lt;&amp;lt;class&amp;gt;&amp;gt;&lt;/i&gt;&lt;br&gt;&lt;b&gt;Handler&lt;/b&gt;&lt;/p&gt;&lt;hr size=&quot;1&quot;&gt;&lt;p style=&quot;margin:0px;margin-left:4px;&quot;&gt;+ field1: Type&lt;br&gt;&lt;/p&gt;&lt;hr size=&quot;1&quot;&gt;&lt;p style=&quot;margin:0px;margin-left:4px;&quot;&gt;+ do_GET(): void&lt;br&gt;+ do_POST(): void&lt;/p&gt;&lt;p style=&quot;margin:0px;margin-left:4px;&quot;&gt;+ do_PUT(): void&lt;/p&gt;&lt;p style=&quot;margin:0px;margin-left:4px;&quot;&gt;+ do_DELETE(): void&lt;br&gt;&lt;/p&gt;&lt;p style=&quot;margin:0px;margin-left:4px;&quot;&gt;+ do_HEAD(): void&lt;/p&gt;" style="verticalAlign=top;align=left;overflow=fill;fontSize=12;fontFamily=Helvetica;html=1;whiteSpace=wrap;" parent="1" vertex="1">
          <mxGeometry x="388.14" y="282.96999999999997" width="214.25" height="154.06" as="geometry" />
        </mxCell>
        <mxCell id="Mctxi2W_aiQkZ-FzXaD9-51" value="&lt;p style=&quot;margin:0px;margin-top:4px;text-align:center;&quot;&gt;&lt;i&gt;&amp;lt;&amp;lt;class&amp;gt;&amp;gt;&lt;/i&gt;&lt;br&gt;&lt;b&gt;Server&lt;/b&gt;&lt;/p&gt;&lt;hr size=&quot;1&quot;&gt;&lt;p style=&quot;margin:0px;margin-left:4px;&quot;&gt;+ instance: ThreadingHTTPServer&lt;/p&gt;&lt;hr size=&quot;1&quot;&gt;&lt;p style=&quot;margin:0px;margin-left:4px;&quot;&gt;+ run(): void&lt;/p&gt;&lt;p style=&quot;margin:0px;margin-left:4px;&quot;&gt;+ pause(): void&lt;/p&gt;&lt;p style=&quot;margin:0px;margin-left:4px;&quot;&gt;+ continue(): void&lt;/p&gt;&lt;p style=&quot;margin:0px;margin-left:4px;&quot;&gt;+ finish(): void&lt;/p&gt;" style="verticalAlign=top;align=left;overflow=fill;fontSize=12;fontFamily=Helvetica;html=1;whiteSpace=wrap;" parent="1" vertex="1">
          <mxGeometry x="100" y="290" width="190" height="140.23" as="geometry" />
        </mxCell>
        <mxCell id="Mctxi2W_aiQkZ-FzXaD9-52" value="&lt;p style=&quot;margin:0px;margin-top:4px;text-align:center;&quot;&gt;&lt;i&gt;&amp;lt;&amp;lt;class&amp;gt;&amp;gt;&lt;/i&gt;&lt;br&gt;&lt;b&gt;Resource&lt;/b&gt;&lt;/p&gt;&lt;hr size=&quot;1&quot;&gt;&lt;p style=&quot;margin:0px;margin-left:4px;&quot;&gt;+ dirpath: str&lt;br&gt;&lt;/p&gt;&lt;hr size=&quot;1&quot;&gt;&lt;p style=&quot;margin:0px;margin-left:4px;&quot;&gt;+ resource_exists(str): bool&lt;/p&gt;&lt;p style=&quot;margin:0px;margin-left:4px;&quot;&gt;+ get_resource(str): str&lt;br&gt;&lt;/p&gt;" style="verticalAlign=top;align=left;overflow=fill;fontSize=12;fontFamily=Helvetica;html=1;whiteSpace=wrap;" parent="1" vertex="1">
          <mxGeometry x="716.51" y="290.22999999999996" width="190" height="140" as="geometry" />
        </mxCell>
        <mxCell id="Mctxi2W_aiQkZ-FzXaD9-53" value="&lt;p style=&quot;margin:0px;margin-top:4px;text-align:center;&quot;&gt;&lt;i&gt;&amp;lt;&amp;lt;class&amp;gt;&amp;gt;&lt;/i&gt;&lt;br&gt;&lt;b&gt;Authenticator&lt;/b&gt;&lt;/p&gt;&lt;hr size=&quot;1&quot;&gt;&lt;p style=&quot;margin:0px;margin-left:4px;&quot;&gt;+ field1: Type&lt;br&gt;&lt;/p&gt;&lt;hr size=&quot;1&quot;&gt;&lt;p style=&quot;margin:0px;margin-left:4px;&quot;&gt;+ method1(Type): Type&lt;br&gt;&lt;/p&gt;" style="verticalAlign=top;align=left;overflow=fill;fontSize=12;fontFamily=Helvetica;html=1;whiteSpace=wrap;" parent="1" vertex="1">
          <mxGeometry x="1020" y="291.8" width="190" height="145" as="geometry" />
        </mxCell>
        <mxCell id="Mctxi2W_aiQkZ-FzXaD9-54" value="&lt;p style=&quot;margin:0px;margin-top:4px;text-align:center;&quot;&gt;&lt;i&gt;&amp;lt;&amp;lt;class&amp;gt;&amp;gt;&lt;/i&gt;&lt;br&gt;&lt;b&gt;Recommender&lt;/b&gt;&lt;/p&gt;&lt;hr size=&quot;1&quot;&gt;&lt;p style=&quot;margin:0px;margin-left:4px;&quot;&gt;+ field1: Type&lt;br&gt;&lt;/p&gt;&lt;hr size=&quot;1&quot;&gt;&lt;p style=&quot;margin:0px;margin-left:4px;&quot;&gt;+ method1(Type): Type&lt;br&gt;&lt;/p&gt;" style="verticalAlign=top;align=left;overflow=fill;fontSize=12;fontFamily=Helvetica;html=1;whiteSpace=wrap;" parent="1" vertex="1">
          <mxGeometry x="1020" y="510.4700000000001" width="190" height="140" as="geometry" />
        </mxCell>
        <mxCell id="Mctxi2W_aiQkZ-FzXaD9-56" value="" style="endArrow=none;html=1;edgeStyle=orthogonalEdgeStyle;rounded=0;exitX=1;exitY=0.5;exitDx=0;exitDy=0;entryX=0;entryY=0.5;entryDx=0;entryDy=0;" parent="1" source="Mctxi2W_aiQkZ-FzXaD9-51" target="Mctxi2W_aiQkZ-FzXaD9-50" edge="1">
          <mxGeometry relative="1" as="geometry">
            <mxPoint x="483.01" y="124.99999999999999" as="sourcePoint" />
            <mxPoint x="573.01" y="124.99999999999999" as="targetPoint" />
          </mxGeometry>
        </mxCell>
        <mxCell id="Mctxi2W_aiQkZ-FzXaD9-60" value="&lt;font style=&quot;font-size: 12px;&quot;&gt;&lt;b&gt;0..*&lt;/b&gt;&lt;/font&gt;" style="text;html=1;strokeColor=none;fillColor=none;align=center;verticalAlign=middle;whiteSpace=wrap;rounded=0;" parent="1" vertex="1">
          <mxGeometry x="340.01" y="360" width="60" height="30" as="geometry" />
        </mxCell>
        <mxCell id="Mctxi2W_aiQkZ-FzXaD9-65" value="«library class»&lt;br&gt;&lt;b&gt;BaseHTTPRequestHandler&lt;/b&gt;" style="html=1;whiteSpace=wrap;" parent="1" vertex="1">
          <mxGeometry x="410.02" y="170" width="170.5" height="50" as="geometry" />
        </mxCell>
        <mxCell id="Mctxi2W_aiQkZ-FzXaD9-68" value="" style="endArrow=block;endSize=16;endFill=0;html=1;rounded=0;entryX=0.5;entryY=1;entryDx=0;entryDy=0;exitX=0.5;exitY=0;exitDx=0;exitDy=0;" parent="1" source="Mctxi2W_aiQkZ-FzXaD9-50" target="Mctxi2W_aiQkZ-FzXaD9-65" edge="1">
          <mxGeometry width="160" relative="1" as="geometry">
            <mxPoint x="652.01" y="540" as="sourcePoint" />
            <mxPoint x="758.01" y="440.00000000000006" as="targetPoint" />
          </mxGeometry>
        </mxCell>
        <mxCell id="Mctxi2W_aiQkZ-FzXaD9-69" value="«library class»&lt;br&gt;&lt;b&gt;ThreadingHTTPServer&lt;/b&gt;" style="html=1;whiteSpace=wrap;" parent="1" vertex="1">
          <mxGeometry x="124.88" y="170" width="140.25" height="50" as="geometry" />
        </mxCell>
        <mxCell id="Mctxi2W_aiQkZ-FzXaD9-71" value="" style="endArrow=diamondThin;endFill=1;endSize=24;html=1;rounded=0;exitX=0.5;exitY=1;exitDx=0;exitDy=0;entryX=0.5;entryY=0;entryDx=0;entryDy=0;" parent="1" source="Mctxi2W_aiQkZ-FzXaD9-69" target="Mctxi2W_aiQkZ-FzXaD9-51" edge="1">
          <mxGeometry width="160" relative="1" as="geometry">
            <mxPoint x="710.01" y="370" as="sourcePoint" />
            <mxPoint x="320.01" y="250" as="targetPoint" />
          </mxGeometry>
        </mxCell>
        <mxCell id="Mctxi2W_aiQkZ-FzXaD9-72" value="" style="endArrow=diamondThin;endFill=0;endSize=24;html=1;rounded=0;entryX=1;entryY=0.5;entryDx=0;entryDy=0;exitX=0;exitY=0.5;exitDx=0;exitDy=0;" parent="1" source="Mctxi2W_aiQkZ-FzXaD9-52" target="Mctxi2W_aiQkZ-FzXaD9-50" edge="1">
          <mxGeometry width="160" relative="1" as="geometry">
            <mxPoint x="700.0100000000002" y="360" as="sourcePoint" />
            <mxPoint x="670.01" y="450.00000000000006" as="targetPoint" />
          </mxGeometry>
        </mxCell>
        <mxCell id="Mctxi2W_aiQkZ-FzXaD9-78" value="" style="endArrow=diamondThin;endFill=0;endSize=24;html=1;rounded=0;entryX=0.5;entryY=1;entryDx=0;entryDy=0;exitX=0.5;exitY=0;exitDx=0;exitDy=0;" parent="1" source="Mctxi2W_aiQkZ-FzXaD9-79" target="Mctxi2W_aiQkZ-FzXaD9-54" edge="1">
          <mxGeometry width="160" relative="1" as="geometry">
            <mxPoint x="780.01" y="760.4699999999999" as="sourcePoint" />
            <mxPoint x="750.01" y="780.4699999999999" as="targetPoint" />
          </mxGeometry>
        </mxCell>
        <mxCell id="Mctxi2W_aiQkZ-FzXaD9-79" value="&lt;p style=&quot;margin:0px;margin-top:4px;text-align:center;&quot;&gt;&lt;i&gt;&amp;lt;&amp;lt;class&amp;gt;&amp;gt;&lt;/i&gt;&lt;br&gt;&lt;b&gt;Database&lt;/b&gt;&lt;/p&gt;&lt;hr size=&quot;1&quot;&gt;&lt;p style=&quot;margin:0px;margin-left:4px;&quot;&gt;+ str_connection: str&lt;br&gt;&lt;/p&gt;&lt;hr size=&quot;1&quot;&gt;&lt;p style=&quot;border-color: var(--border-color); margin: 0px 0px 0px 4px;&quot;&gt;+ is_on(): bool&lt;/p&gt;&lt;p style=&quot;margin:0px;margin-left:4px;&quot;&gt;+ query(str): bool&lt;/p&gt;" style="verticalAlign=top;align=left;overflow=fill;fontSize=12;fontFamily=Helvetica;html=1;whiteSpace=wrap;" parent="1" vertex="1">
          <mxGeometry x="1020" y="735.47" width="190" height="104.53" as="geometry" />
        </mxCell>
        <mxCell id="HZqyk_B0RYxZIagJzKKh-5" value="&lt;p style=&quot;margin:0px;margin-top:4px;text-align:center;&quot;&gt;&lt;i&gt;&amp;lt;&amp;lt;class&amp;gt;&amp;gt;&lt;/i&gt;&lt;br&gt;&lt;b&gt;File&lt;/b&gt;&lt;/p&gt;&lt;hr size=&quot;1&quot;&gt;&lt;p style=&quot;margin:0px;margin-left:4px;&quot;&gt;+ dir_path: str&lt;br&gt;&lt;/p&gt;&lt;hr size=&quot;1&quot;&gt;&lt;p style=&quot;border-color: var(--border-color); margin: 0px 0px 0px 4px;&quot;&gt;+ file_exists(str): bool&lt;/p&gt;&lt;p style=&quot;margin:0px;margin-left:4px;&quot;&gt;+ read_file(str): bool&lt;/p&gt;&lt;p style=&quot;margin:0px;margin-left:4px;&quot;&gt;+ write_file(str): str&lt;br&gt;&lt;/p&gt;" style="verticalAlign=top;align=left;overflow=fill;fontSize=12;fontFamily=Helvetica;html=1;whiteSpace=wrap;" parent="1" vertex="1">
          <mxGeometry x="716.51" y="510.4700000000001" width="190" height="120" as="geometry" />
        </mxCell>
        <mxCell id="HZqyk_B0RYxZIagJzKKh-7" style="edgeStyle=orthogonalEdgeStyle;rounded=0;orthogonalLoop=1;jettySize=auto;html=1;exitX=0.5;exitY=1;exitDx=0;exitDy=0;" parent="1" source="Mctxi2W_aiQkZ-FzXaD9-79" target="Mctxi2W_aiQkZ-FzXaD9-79" edge="1">
          <mxGeometry relative="1" as="geometry" />
        </mxCell>
        <mxCell id="iNpBf-Y_miZb7KLnfe0j-1" value="&lt;p style=&quot;margin:0px;margin-top:4px;text-align:center;&quot;&gt;&lt;i&gt;&amp;lt;&amp;lt;class&amp;gt;&amp;gt;&lt;/i&gt;&lt;br&gt;&lt;b&gt;Itinerary&lt;/b&gt;&lt;/p&gt;&lt;hr size=&quot;1&quot;&gt;&lt;p style=&quot;margin:0px;margin-left:4px;&quot;&gt;+ destination: str&lt;/p&gt;&lt;p style=&quot;margin:0px;margin-left:4px;&quot;&gt;+ begin_date: datetime&lt;br&gt;&lt;/p&gt;&lt;p style=&quot;margin:0px;margin-left:4px;&quot;&gt;+ end_date: datetime&lt;/p&gt;&lt;p style=&quot;margin:0px;margin-left:4px;&quot;&gt;+ budget: float&lt;/p&gt;&lt;p style=&quot;margin:0px;margin-left:4px;&quot;&gt;+ locations: set&amp;nbsp;&lt;/p&gt;&lt;hr size=&quot;1&quot;&gt;&lt;p style=&quot;margin:0px;margin-left:4px;&quot;&gt;+ method1(Type): Type&lt;br&gt;&lt;/p&gt;" style="verticalAlign=top;align=left;overflow=fill;fontSize=12;fontFamily=Helvetica;html=1;whiteSpace=wrap;" parent="1" vertex="1">
          <mxGeometry x="1370" y="691.8" width="190" height="150" as="geometry" />
        </mxCell>
        <mxCell id="iNpBf-Y_miZb7KLnfe0j-3" value="&lt;p style=&quot;margin:0px;margin-top:4px;text-align:center;&quot;&gt;&lt;i&gt;&amp;lt;&amp;lt;class&amp;gt;&amp;gt;&lt;/i&gt;&lt;br&gt;&lt;b&gt;location&lt;/b&gt;&lt;/p&gt;&lt;hr size=&quot;1&quot;&gt;&lt;p style=&quot;margin:0px;margin-left:4px;&quot;&gt;+ destination: str&lt;/p&gt;&lt;p style=&quot;margin:0px;margin-left:4px;&quot;&gt;+ locations: set&amp;nbsp;&lt;/p&gt;&lt;p style=&quot;margin:0px;margin-left:4px;&quot;&gt;+ features: list&lt;/p&gt;&lt;hr size=&quot;1&quot;&gt;&lt;p style=&quot;margin:0px;margin-left:4px;&quot;&gt;+ method1(Type): Type&lt;br&gt;&lt;/p&gt;" style="verticalAlign=top;align=left;overflow=fill;fontSize=12;fontFamily=Helvetica;html=1;whiteSpace=wrap;" parent="1" vertex="1">
          <mxGeometry x="1370" y="891.8" width="190" height="150" as="geometry" />
        </mxCell>
        <mxCell id="iNpBf-Y_miZb7KLnfe0j-4" value="" style="endArrow=diamondThin;endFill=0;endSize=24;html=1;rounded=0;entryX=0.5;entryY=1;entryDx=0;entryDy=0;exitX=0.5;exitY=0;exitDx=0;exitDy=0;" parent="1" source="iNpBf-Y_miZb7KLnfe0j-3" target="iNpBf-Y_miZb7KLnfe0j-1" edge="1">
          <mxGeometry width="160" relative="1" as="geometry">
            <mxPoint x="1119.5" y="951.8" as="sourcePoint" />
            <mxPoint x="1319.5" y="901.8" as="targetPoint" />
          </mxGeometry>
        </mxCell>
        <mxCell id="iNpBf-Y_miZb7KLnfe0j-5" value="&lt;p style=&quot;margin:0px;margin-top:4px;text-align:center;&quot;&gt;&lt;i&gt;&amp;lt;&amp;lt;class&amp;gt;&amp;gt;&lt;/i&gt;&lt;br&gt;&lt;b&gt;TravelerItinerarys&lt;/b&gt;&lt;/p&gt;&lt;hr size=&quot;1&quot;&gt;&lt;p style=&quot;margin:0px;margin-left:4px;&quot;&gt;+ destination: str&lt;/p&gt;&lt;hr size=&quot;1&quot;&gt;&lt;p style=&quot;margin:0px;margin-left:4px;&quot;&gt;+ method1(Type): Type&lt;br&gt;&lt;/p&gt;" style="verticalAlign=top;align=left;overflow=fill;fontSize=12;fontFamily=Helvetica;html=1;whiteSpace=wrap;" parent="1" vertex="1">
          <mxGeometry x="1370" y="492.03000000000003" width="190" height="150" as="geometry" />
        </mxCell>
        <mxCell id="iNpBf-Y_miZb7KLnfe0j-6" value="" style="endArrow=diamondThin;endFill=0;endSize=24;html=1;rounded=0;entryX=0.5;entryY=1;entryDx=0;entryDy=0;exitX=0.5;exitY=0;exitDx=0;exitDy=0;" parent="1" source="iNpBf-Y_miZb7KLnfe0j-1" target="iNpBf-Y_miZb7KLnfe0j-5" edge="1">
          <mxGeometry width="160" relative="1" as="geometry">
            <mxPoint x="1615" y="722.03" as="sourcePoint" />
            <mxPoint x="1615" y="652.03" as="targetPoint" />
          </mxGeometry>
        </mxCell>
        <mxCell id="iNpBf-Y_miZb7KLnfe0j-7" value="&lt;p style=&quot;margin:0px;margin-top:4px;text-align:center;&quot;&gt;&lt;i&gt;&amp;lt;&amp;lt;class&amp;gt;&amp;gt;&lt;/i&gt;&lt;br&gt;&lt;b&gt;Traveler&lt;/b&gt;&lt;/p&gt;&lt;hr size=&quot;1&quot;&gt;&lt;p style=&quot;margin:0px;margin-left:4px;&quot;&gt;+ token: str&lt;/p&gt;&lt;p style=&quot;margin:0px;margin-left:4px;&quot;&gt;+ ip: str&lt;/p&gt;&lt;p style=&quot;margin:0px;margin-left:4px;&quot;&gt;+ itinerarys: list&lt;/p&gt;&lt;p style=&quot;margin:0px;margin-left:4px;&quot;&gt;+ features: list&lt;/p&gt;&lt;hr size=&quot;1&quot;&gt;&lt;p style=&quot;margin:0px;margin-left:4px;&quot;&gt;+ method1(Type): Type&lt;br&gt;&lt;/p&gt;" style="verticalAlign=top;align=left;overflow=fill;fontSize=12;fontFamily=Helvetica;html=1;whiteSpace=wrap;" parent="1" vertex="1">
          <mxGeometry x="1370" y="291.8" width="190" height="150" as="geometry" />
        </mxCell>
        <mxCell id="iNpBf-Y_miZb7KLnfe0j-8" value="" style="endArrow=diamondThin;endFill=0;endSize=24;html=1;rounded=0;entryX=0.5;entryY=1;entryDx=0;entryDy=0;" parent="1" source="iNpBf-Y_miZb7KLnfe0j-5" target="iNpBf-Y_miZb7KLnfe0j-7" edge="1">
          <mxGeometry width="160" relative="1" as="geometry">
            <mxPoint x="1510" y="451.8" as="sourcePoint" />
            <mxPoint x="1510" y="671.8" as="targetPoint" />
          </mxGeometry>
        </mxCell>
        <mxCell id="iNpBf-Y_miZb7KLnfe0j-12" value="" style="endArrow=none;html=1;edgeStyle=orthogonalEdgeStyle;rounded=0;exitX=1;exitY=0.75;exitDx=0;exitDy=0;entryX=0;entryY=0.5;entryDx=0;entryDy=0;" parent="1" source="Mctxi2W_aiQkZ-FzXaD9-54" target="iNpBf-Y_miZb7KLnfe0j-3" edge="1">
          <mxGeometry relative="1" as="geometry">
            <mxPoint x="1350" y="711.8" as="sourcePoint" />
            <mxPoint x="1510" y="711.8" as="targetPoint" />
          </mxGeometry>
        </mxCell>
        <mxCell id="iNpBf-Y_miZb7KLnfe0j-15" value="" style="endArrow=none;html=1;edgeStyle=orthogonalEdgeStyle;rounded=0;exitX=0;exitY=0.75;exitDx=0;exitDy=0;entryX=1;entryY=0.25;entryDx=0;entryDy=0;" parent="1" source="iNpBf-Y_miZb7KLnfe0j-7" target="Mctxi2W_aiQkZ-FzXaD9-54" edge="1">
          <mxGeometry relative="1" as="geometry">
            <mxPoint x="1192.01" y="286.91" as="sourcePoint" />
            <mxPoint x="1279.01" y="516.91" as="targetPoint" />
          </mxGeometry>
        </mxCell>
        <mxCell id="iNpBf-Y_miZb7KLnfe0j-16" value="" style="endArrow=none;html=1;edgeStyle=orthogonalEdgeStyle;rounded=0;exitX=0;exitY=0.25;exitDx=0;exitDy=0;entryX=1;entryY=0.25;entryDx=0;entryDy=0;" parent="1" source="iNpBf-Y_miZb7KLnfe0j-7" target="Mctxi2W_aiQkZ-FzXaD9-53" edge="1">
          <mxGeometry relative="1" as="geometry">
            <mxPoint x="1380" y="379.8" as="sourcePoint" />
            <mxPoint x="1270" y="506.8" as="targetPoint" />
          </mxGeometry>
        </mxCell>
        <mxCell id="iNpBf-Y_miZb7KLnfe0j-17" value="" style="endArrow=diamondThin;endFill=0;endSize=24;html=1;rounded=0;entryX=0.5;entryY=1;entryDx=0;entryDy=0;exitX=0.5;exitY=0;exitDx=0;exitDy=0;" parent="1" source="HZqyk_B0RYxZIagJzKKh-5" target="Mctxi2W_aiQkZ-FzXaD9-52" edge="1">
          <mxGeometry width="160" relative="1" as="geometry">
            <mxPoint x="846.51" y="526.8" as="sourcePoint" />
            <mxPoint x="846.51" y="441.8" as="targetPoint" />
          </mxGeometry>
        </mxCell>
        <mxCell id="iNpBf-Y_miZb7KLnfe0j-18" value="" style="endArrow=diamondThin;endFill=0;endSize=24;html=1;rounded=0;entryX=0.5;entryY=1;entryDx=0;entryDy=0;exitX=0.5;exitY=0;exitDx=0;exitDy=0;" parent="1" source="Mctxi2W_aiQkZ-FzXaD9-54" target="Mctxi2W_aiQkZ-FzXaD9-53" edge="1">
          <mxGeometry width="160" relative="1" as="geometry">
            <mxPoint x="825" y="520.8" as="sourcePoint" />
            <mxPoint x="825" y="444.8" as="targetPoint" />
          </mxGeometry>
        </mxCell>
        <mxCell id="iNpBf-Y_miZb7KLnfe0j-19" value="" style="endArrow=diamondThin;endFill=0;endSize=24;html=1;rounded=0;entryX=0.75;entryY=1;entryDx=0;entryDy=0;exitX=0;exitY=0.25;exitDx=0;exitDy=0;" parent="1" source="Mctxi2W_aiQkZ-FzXaD9-54" target="Mctxi2W_aiQkZ-FzXaD9-52" edge="1">
          <mxGeometry width="160" relative="1" as="geometry">
            <mxPoint x="825" y="410.8" as="sourcePoint" />
            <mxPoint x="825" y="334.8" as="targetPoint" />
          </mxGeometry>
        </mxCell>
        <mxCell id="iNpBf-Y_miZb7KLnfe0j-20" value="" style="endArrow=diamondThin;endFill=0;endSize=24;html=1;rounded=0;exitX=0;exitY=0.25;exitDx=0;exitDy=0;entryX=1;entryY=0.25;entryDx=0;entryDy=0;" parent="1" source="Mctxi2W_aiQkZ-FzXaD9-53" target="Mctxi2W_aiQkZ-FzXaD9-52" edge="1">
          <mxGeometry width="160" relative="1" as="geometry">
            <mxPoint x="980" y="276.8" as="sourcePoint" />
            <mxPoint x="950" y="196.8" as="targetPoint" />
          </mxGeometry>
        </mxCell>
      </root>
    </mxGraphModel>
  </diagram>
</mxfile>
